<mxfile host="app.diagrams.net" modified="2024-03-30T06:20:04.128Z" agent="Mozilla/5.0 (Windows NT 10.0; Win64; x64) AppleWebKit/537.36 (KHTML, like Gecko) Chrome/121.0.0.0 Safari/537.36 OPR/107.0.0.0" etag="03bQsj2FJ-ntetWcoaoj" version="24.0.7" type="github">
  <diagram name="Page-1" id="CcjjviD7n0SHSWbUQ4M4">
    <mxGraphModel dx="1009" dy="589" grid="1" gridSize="10" guides="1" tooltips="1" connect="1" arrows="1" fold="1" page="1" pageScale="1" pageWidth="850" pageHeight="1100" math="0" shadow="0">
      <root>
        <mxCell id="0" />
        <mxCell id="1" parent="0" />
        <mxCell id="o7Sh_ZkmPcDzMAhBmwNY-1" value="Клиент" style="shape=umlActor;verticalLabelPosition=bottom;verticalAlign=top;html=1;outlineConnect=0;" vertex="1" parent="1">
          <mxGeometry x="10" y="270" width="30" height="60" as="geometry" />
        </mxCell>
        <mxCell id="o7Sh_ZkmPcDzMAhBmwNY-2" value="Интерфейс производителя" style="shape=umlBoundary;whiteSpace=wrap;html=1;" vertex="1" parent="1">
          <mxGeometry x="600" y="255" width="112.5" height="90" as="geometry" />
        </mxCell>
        <mxCell id="o7Sh_ZkmPcDzMAhBmwNY-3" value="Интерфейс торгового агента" style="shape=umlBoundary;whiteSpace=wrap;html=1;" vertex="1" parent="1">
          <mxGeometry x="140" y="390" width="100" height="80" as="geometry" />
        </mxCell>
        <mxCell id="o7Sh_ZkmPcDzMAhBmwNY-4" value="Интерфейс отдела связи" style="shape=umlBoundary;whiteSpace=wrap;html=1;" vertex="1" parent="1">
          <mxGeometry x="140" y="260" width="100" height="80" as="geometry" />
        </mxCell>
        <mxCell id="o7Sh_ZkmPcDzMAhBmwNY-5" value="Интерфейс оператора доставки" style="shape=umlBoundary;whiteSpace=wrap;html=1;" vertex="1" parent="1">
          <mxGeometry x="140" y="130" width="100" height="80" as="geometry" />
        </mxCell>
        <mxCell id="o7Sh_ZkmPcDzMAhBmwNY-6" value="" style="endArrow=open;endFill=1;endSize=12;html=1;rounded=0;" edge="1" parent="1" source="o7Sh_ZkmPcDzMAhBmwNY-5" target="o7Sh_ZkmPcDzMAhBmwNY-1">
          <mxGeometry width="160" relative="1" as="geometry">
            <mxPoint x="300" y="50" as="sourcePoint" />
            <mxPoint x="460" y="50" as="targetPoint" />
          </mxGeometry>
        </mxCell>
        <mxCell id="o7Sh_ZkmPcDzMAhBmwNY-7" value="" style="endArrow=open;endFill=1;endSize=12;html=1;rounded=0;" edge="1" parent="1" source="o7Sh_ZkmPcDzMAhBmwNY-1" target="o7Sh_ZkmPcDzMAhBmwNY-3">
          <mxGeometry width="160" relative="1" as="geometry">
            <mxPoint x="320" y="103" as="sourcePoint" />
            <mxPoint x="420" y="30" as="targetPoint" />
          </mxGeometry>
        </mxCell>
        <mxCell id="o7Sh_ZkmPcDzMAhBmwNY-8" value="" style="endArrow=open;endFill=1;endSize=12;html=1;rounded=0;" edge="1" parent="1" source="o7Sh_ZkmPcDzMAhBmwNY-4" target="o7Sh_ZkmPcDzMAhBmwNY-1">
          <mxGeometry width="160" relative="1" as="geometry">
            <mxPoint x="160" y="236" as="sourcePoint" />
            <mxPoint x="60" y="309" as="targetPoint" />
          </mxGeometry>
        </mxCell>
        <mxCell id="o7Sh_ZkmPcDzMAhBmwNY-9" value="Обработка запроса товара" style="ellipse;shape=umlControl;whiteSpace=wrap;html=1;" vertex="1" parent="1">
          <mxGeometry x="746.25" y="250" width="87.5" height="100" as="geometry" />
        </mxCell>
        <mxCell id="o7Sh_ZkmPcDzMAhBmwNY-13" value="Каталог" style="ellipse;shape=umlEntity;whiteSpace=wrap;html=1;" vertex="1" parent="1">
          <mxGeometry x="440" y="390" width="80" height="80" as="geometry" />
        </mxCell>
        <mxCell id="o7Sh_ZkmPcDzMAhBmwNY-14" value="Склад" style="ellipse;shape=umlEntity;whiteSpace=wrap;html=1;" vertex="1" parent="1">
          <mxGeometry x="750" y="130" width="80" height="80" as="geometry" />
        </mxCell>
        <mxCell id="o7Sh_ZkmPcDzMAhBmwNY-15" value="Отдел логистики" style="ellipse;shape=umlEntity;whiteSpace=wrap;html=1;" vertex="1" parent="1">
          <mxGeometry x="440" y="130" width="80" height="80" as="geometry" />
        </mxCell>
        <mxCell id="o7Sh_ZkmPcDzMAhBmwNY-16" value="Служба доставки" style="ellipse;shape=umlEntity;whiteSpace=wrap;html=1;" vertex="1" parent="1">
          <mxGeometry x="293.75" width="80" height="80" as="geometry" />
        </mxCell>
        <mxCell id="o7Sh_ZkmPcDzMAhBmwNY-18" value="Обработка запроса доставки" style="ellipse;shape=umlControl;whiteSpace=wrap;html=1;" vertex="1" parent="1">
          <mxGeometry x="290" y="120" width="87.5" height="100" as="geometry" />
        </mxCell>
        <mxCell id="o7Sh_ZkmPcDzMAhBmwNY-19" value="Подтверждение заказа" style="ellipse;shape=umlControl;whiteSpace=wrap;html=1;" vertex="1" parent="1">
          <mxGeometry x="285.63" y="245" width="96.25" height="110" as="geometry" />
        </mxCell>
        <mxCell id="o7Sh_ZkmPcDzMAhBmwNY-20" value="Оформление заказа" style="ellipse;shape=umlControl;whiteSpace=wrap;html=1;" vertex="1" parent="1">
          <mxGeometry x="290" y="380" width="87.5" height="100" as="geometry" />
        </mxCell>
        <mxCell id="o7Sh_ZkmPcDzMAhBmwNY-21" value="" style="endArrow=open;endFill=1;endSize=12;html=1;rounded=0;dashed=1;" edge="1" parent="1" source="o7Sh_ZkmPcDzMAhBmwNY-9" target="o7Sh_ZkmPcDzMAhBmwNY-14">
          <mxGeometry width="160" relative="1" as="geometry">
            <mxPoint x="810" y="355" as="sourcePoint" />
            <mxPoint x="710" y="434" as="targetPoint" />
          </mxGeometry>
        </mxCell>
        <mxCell id="o7Sh_ZkmPcDzMAhBmwNY-22" value="" style="endArrow=open;endFill=1;endSize=12;html=1;rounded=0;dashed=1;" edge="1" parent="1" source="o7Sh_ZkmPcDzMAhBmwNY-18" target="o7Sh_ZkmPcDzMAhBmwNY-16">
          <mxGeometry width="160" relative="1" as="geometry">
            <mxPoint x="560" y="39.5" as="sourcePoint" />
            <mxPoint x="610" y="39.5" as="targetPoint" />
          </mxGeometry>
        </mxCell>
        <mxCell id="o7Sh_ZkmPcDzMAhBmwNY-23" value="" style="endArrow=open;endFill=1;endSize=12;html=1;rounded=0;dashed=1;" edge="1" parent="1" source="o7Sh_ZkmPcDzMAhBmwNY-20" target="o7Sh_ZkmPcDzMAhBmwNY-13">
          <mxGeometry width="160" relative="1" as="geometry">
            <mxPoint x="572.5" y="550" as="sourcePoint" />
            <mxPoint x="672.5" y="380" as="targetPoint" />
          </mxGeometry>
        </mxCell>
        <mxCell id="o7Sh_ZkmPcDzMAhBmwNY-24" value="" style="endArrow=open;endFill=1;endSize=12;html=1;rounded=0;dashed=1;" edge="1" parent="1" source="o7Sh_ZkmPcDzMAhBmwNY-19" target="o7Sh_ZkmPcDzMAhBmwNY-15">
          <mxGeometry width="160" relative="1" as="geometry">
            <mxPoint x="430" y="310" as="sourcePoint" />
            <mxPoint x="492" y="310" as="targetPoint" />
          </mxGeometry>
        </mxCell>
        <mxCell id="o7Sh_ZkmPcDzMAhBmwNY-25" value="" style="endArrow=open;endFill=1;endSize=12;html=1;rounded=0;" edge="1" parent="1" source="o7Sh_ZkmPcDzMAhBmwNY-3" target="o7Sh_ZkmPcDzMAhBmwNY-20">
          <mxGeometry width="160" relative="1" as="geometry">
            <mxPoint x="340" y="530" as="sourcePoint" />
            <mxPoint x="240" y="530" as="targetPoint" />
          </mxGeometry>
        </mxCell>
        <mxCell id="o7Sh_ZkmPcDzMAhBmwNY-26" value="" style="endArrow=open;endFill=1;endSize=12;html=1;rounded=0;" edge="1" parent="1" source="o7Sh_ZkmPcDzMAhBmwNY-4" target="o7Sh_ZkmPcDzMAhBmwNY-19">
          <mxGeometry width="160" relative="1" as="geometry">
            <mxPoint x="240" y="355" as="sourcePoint" />
            <mxPoint x="290" y="355" as="targetPoint" />
          </mxGeometry>
        </mxCell>
        <mxCell id="o7Sh_ZkmPcDzMAhBmwNY-27" value="" style="endArrow=open;endFill=1;endSize=12;html=1;rounded=0;" edge="1" parent="1" source="o7Sh_ZkmPcDzMAhBmwNY-18" target="o7Sh_ZkmPcDzMAhBmwNY-5">
          <mxGeometry width="160" relative="1" as="geometry">
            <mxPoint x="167" y="60" as="sourcePoint" />
            <mxPoint x="213" y="60" as="targetPoint" />
          </mxGeometry>
        </mxCell>
        <mxCell id="o7Sh_ZkmPcDzMAhBmwNY-28" value="" style="endArrow=open;endFill=1;endSize=12;html=1;rounded=0;" edge="1" parent="1" source="o7Sh_ZkmPcDzMAhBmwNY-19" target="o7Sh_ZkmPcDzMAhBmwNY-2">
          <mxGeometry width="160" relative="1" as="geometry">
            <mxPoint x="530" y="299.5" as="sourcePoint" />
            <mxPoint x="560" y="300" as="targetPoint" />
          </mxGeometry>
        </mxCell>
        <mxCell id="o7Sh_ZkmPcDzMAhBmwNY-29" value="" style="endArrow=none;endFill=0;endSize=12;html=1;rounded=0;" edge="1" parent="1" source="o7Sh_ZkmPcDzMAhBmwNY-2" target="o7Sh_ZkmPcDzMAhBmwNY-9">
          <mxGeometry width="160" relative="1" as="geometry">
            <mxPoint x="572" y="360" as="sourcePoint" />
            <mxPoint x="750" y="360" as="targetPoint" />
          </mxGeometry>
        </mxCell>
        <mxCell id="o7Sh_ZkmPcDzMAhBmwNY-30" value="" style="endArrow=open;endFill=1;endSize=12;html=1;rounded=0;" edge="1" parent="1" source="o7Sh_ZkmPcDzMAhBmwNY-2" target="o7Sh_ZkmPcDzMAhBmwNY-15">
          <mxGeometry width="160" relative="1" as="geometry">
            <mxPoint x="572.5" y="170" as="sourcePoint" />
            <mxPoint x="626" y="230" as="targetPoint" />
          </mxGeometry>
        </mxCell>
        <mxCell id="o7Sh_ZkmPcDzMAhBmwNY-31" value="" style="endArrow=open;endFill=1;endSize=12;html=1;rounded=0;" edge="1" parent="1" source="o7Sh_ZkmPcDzMAhBmwNY-15" target="o7Sh_ZkmPcDzMAhBmwNY-18">
          <mxGeometry width="160" relative="1" as="geometry">
            <mxPoint x="583" y="180" as="sourcePoint" />
            <mxPoint x="410" y="180" as="targetPoint" />
          </mxGeometry>
        </mxCell>
        <mxCell id="o7Sh_ZkmPcDzMAhBmwNY-34" value="Клиент" style="shape=umlActor;verticalLabelPosition=bottom;verticalAlign=top;html=1;outlineConnect=0;" vertex="1" parent="1">
          <mxGeometry x="170" y="590" width="30" height="60" as="geometry" />
        </mxCell>
        <mxCell id="o7Sh_ZkmPcDzMAhBmwNY-35" value="Use Case" style="ellipse;whiteSpace=wrap;html=1;" vertex="1" parent="1">
          <mxGeometry x="200" y="650" width="140" height="70" as="geometry" />
        </mxCell>
        <mxCell id="o7Sh_ZkmPcDzMAhBmwNY-36" value="Use Case" style="ellipse;whiteSpace=wrap;html=1;" vertex="1" parent="1">
          <mxGeometry x="30" y="650" width="140" height="70" as="geometry" />
        </mxCell>
        <mxCell id="o7Sh_ZkmPcDzMAhBmwNY-37" value="" style="endArrow=open;endFill=1;endSize=12;html=1;rounded=0;" edge="1" parent="1" source="o7Sh_ZkmPcDzMAhBmwNY-34" target="o7Sh_ZkmPcDzMAhBmwNY-35">
          <mxGeometry width="160" relative="1" as="geometry">
            <mxPoint x="150" y="660" as="sourcePoint" />
            <mxPoint x="425" y="689" as="targetPoint" />
          </mxGeometry>
        </mxCell>
        <mxCell id="o7Sh_ZkmPcDzMAhBmwNY-38" value="" style="endArrow=open;endFill=1;endSize=12;html=1;rounded=0;" edge="1" parent="1" source="o7Sh_ZkmPcDzMAhBmwNY-34" target="o7Sh_ZkmPcDzMAhBmwNY-36">
          <mxGeometry width="160" relative="1" as="geometry">
            <mxPoint x="150" y="640" as="sourcePoint" />
            <mxPoint x="242" y="594" as="targetPoint" />
          </mxGeometry>
        </mxCell>
      </root>
    </mxGraphModel>
  </diagram>
</mxfile>
